STARTFONT 2.1
FONT -FontForge-Zen Tokyo Zoo-Book-R-Normal--14-140-72-72-P-65-ISO10646-1
SIZE 14 72 72
FONTBOUNDINGBOX 18 20 -1 -4
COMMENT "Generated by fontforge, http://fontforge.sourceforge.net"
COMMENT "Copyright 2021 The Zen Tokyo Zoo Project Authors (https://github.com/googlefonts/zen-tokyo-zoo)"
STARTPROPERTIES 39
FOUNDRY "FontForge"
FAMILY_NAME "Zen Tokyo Zoo"
WEIGHT_NAME "Book"
SLANT "R"
SETWIDTH_NAME "Normal"
ADD_STYLE_NAME ""
PIXEL_SIZE 14
POINT_SIZE 140
RESOLUTION_X 72
RESOLUTION_Y 72
SPACING "P"
AVERAGE_WIDTH 65
CHARSET_REGISTRY "ISO10646"
CHARSET_ENCODING "1"
FONTNAME_REGISTRY ""
CHARSET_COLLECTIONS "ISO10646-1"
FONT_NAME "ZenTokyoZoo-Regular"
FACE_NAME "Zen Tokyo Zoo Regular"
COPYRIGHT "Copyright 2021 The Zen Tokyo Zoo Project Authors (https://github.com/googlefonts/zen-tokyo-zoo)"
FONT_VERSION "1.002; ttfautohint (v1.8.3)"
FONT_ASCENT 11
FONT_DESCENT 3
UNDERLINE_POSITION -2
UNDERLINE_THICKNESS 1
X_HEIGHT 5
CAP_HEIGHT 11
RAW_ASCENT 800
RAW_DESCENT 200
NORM_SPACE 4
RELATIVE_WEIGHT 40
RELATIVE_SETWIDTH 50
SUPERSCRIPT_X 0
SUPERSCRIPT_Y 4
SUPERSCRIPT_SIZE 8
SUBSCRIPT_X 0
SUBSCRIPT_Y 1
SUBSCRIPT_SIZE 8
AVG_LOWERCASE_WIDTH 57
AVG_UPPERCASE_WIDTH 106
ENDPROPERTIES
CHARS 338
STARTCHAR CR
ENCODING 13
SWIDTH 600 0
DWIDTH 8 0
BBX 1 1 0 0
BITMAP
00
ENDCHAR
STARTCHAR space
ENCODING 32
SWIDTH 280 0
DWIDTH 4 0
BBX 1 1 0 0
BITMAP
00
ENDCHAR
STARTCHAR exclam
ENCODING 33
SWIDTH 196 0
DWIDTH 3 0
BBX 1 6 1 0
BITMAP
80
80
80
80
00
80
ENDCHAR
STARTCHAR quotedbl
ENCODING 34
SWIDTH 302 0
DWIDTH 4 0
BBX 4 2 0 4
BITMAP
D0
D0
ENDCHAR
STARTCHAR numbersign
ENCODING 35
SWIDTH 513 0
DWIDTH 7 0
BBX 5 6 1 0
BITMAP
78
B8
D8
E8
D8
F0
ENDCHAR
STARTCHAR dollar
ENCODING 36
SWIDTH 379 0
DWIDTH 5 0
BBX 5 7 0 -1
BITMAP
20
F8
C0
70
58
A8
70
ENDCHAR
STARTCHAR percent
ENCODING 37
SWIDTH 493 0
DWIDTH 7 0
BBX 7 6 0 0
BITMAP
6C
F8
70
3C
76
6C
ENDCHAR
STARTCHAR ampersand
ENCODING 38
SWIDTH 487 0
DWIDTH 7 0
BBX 5 6 1 0
BITMAP
70
F0
70
E8
F0
F8
ENDCHAR
STARTCHAR quotesingle
ENCODING 39
SWIDTH 146 0
DWIDTH 2 0
BBX 2 2 0 4
BITMAP
C0
C0
ENDCHAR
STARTCHAR parenleft
ENCODING 40
SWIDTH 210 0
DWIDTH 3 0
BBX 3 7 0 0
BITMAP
60
40
40
C0
C0
C0
60
ENDCHAR
STARTCHAR parenright
ENCODING 41
SWIDTH 210 0
DWIDTH 3 0
BBX 3 7 0 0
BITMAP
C0
C0
40
60
40
40
C0
ENDCHAR
STARTCHAR asterisk
ENCODING 42
SWIDTH 358 0
DWIDTH 5 0
BBX 3 4 1 2
BITMAP
40
A0
A0
A0
ENDCHAR
STARTCHAR plus
ENCODING 43
SWIDTH 394 0
DWIDTH 6 0
BBX 4 4 1 1
BITMAP
40
D0
D0
40
ENDCHAR
STARTCHAR comma
ENCODING 44
SWIDTH 216 0
DWIDTH 3 0
BBX 1 2 1 -1
BITMAP
80
80
ENDCHAR
STARTCHAR hyphen
ENCODING 45
SWIDTH 326 0
DWIDTH 5 0
BBX 3 2 1 2
BITMAP
E0
E0
ENDCHAR
STARTCHAR period
ENCODING 46
SWIDTH 176 0
DWIDTH 2 0
BBX 1 1 1 0
BITMAP
80
ENDCHAR
STARTCHAR slash
ENCODING 47
SWIDTH 298 0
DWIDTH 4 0
BBX 4 6 0 0
BITMAP
30
20
60
60
40
C0
ENDCHAR
STARTCHAR zero
ENCODING 48
SWIDTH 306 0
DWIDTH 4 0
BBX 4 6 0 0
BITMAP
60
D0
D0
D0
B0
70
ENDCHAR
STARTCHAR one
ENCODING 49
SWIDTH 306 0
DWIDTH 4 0
BBX 3 6 1 0
BITMAP
E0
E0
60
60
60
60
ENDCHAR
STARTCHAR two
ENCODING 50
SWIDTH 299 0
DWIDTH 4 0
BBX 4 6 0 0
BITMAP
60
F0
20
40
F0
F0
ENDCHAR
STARTCHAR three
ENCODING 51
SWIDTH 324 0
DWIDTH 5 0
BBX 4 6 0 0
BITMAP
70
F0
20
30
F0
70
ENDCHAR
STARTCHAR four
ENCODING 52
SWIDTH 339 0
DWIDTH 5 0
BBX 4 6 0 0
BITMAP
30
60
60
D0
10
D0
ENDCHAR
STARTCHAR five
ENCODING 53
SWIDTH 363 0
DWIDTH 5 0
BBX 3 6 1 0
BITMAP
E0
E0
80
A0
E0
E0
ENDCHAR
STARTCHAR six
ENCODING 54
SWIDTH 306 0
DWIDTH 4 0
BBX 4 6 0 0
BITMAP
70
C0
E0
F0
B0
70
ENDCHAR
STARTCHAR seven
ENCODING 55
SWIDTH 298 0
DWIDTH 4 0
BBX 3 6 1 0
BITMAP
E0
E0
40
40
C0
C0
ENDCHAR
STARTCHAR eight
ENCODING 56
SWIDTH 306 0
DWIDTH 4 0
BBX 4 6 0 0
BITMAP
70
D0
E0
B0
F0
70
ENDCHAR
STARTCHAR nine
ENCODING 57
SWIDTH 306 0
DWIDTH 4 0
BBX 4 6 0 0
BITMAP
60
D0
90
50
B0
70
ENDCHAR
STARTCHAR colon
ENCODING 58
SWIDTH 176 0
DWIDTH 2 0
BBX 1 3 1 0
BITMAP
80
00
80
ENDCHAR
STARTCHAR semicolon
ENCODING 59
SWIDTH 217 0
DWIDTH 3 0
BBX 1 4 1 -1
BITMAP
80
00
80
80
ENDCHAR
STARTCHAR less
ENCODING 60
SWIDTH 450 0
DWIDTH 6 0
BBX 5 6 1 0
BITMAP
08
38
D0
E0
78
18
ENDCHAR
STARTCHAR equal
ENCODING 61
SWIDTH 344 0
DWIDTH 5 0
BBX 3 4 1 0
BITMAP
E0
E0
E0
E0
ENDCHAR
STARTCHAR greater
ENCODING 62
SWIDTH 450 0
DWIDTH 6 0
BBX 5 6 1 0
BITMAP
80
C0
70
78
E0
80
ENDCHAR
STARTCHAR question
ENCODING 63
SWIDTH 346 0
DWIDTH 5 0
BBX 3 6 1 0
BITMAP
E0
E0
60
40
C0
C0
ENDCHAR
STARTCHAR at
ENCODING 64
SWIDTH 490 0
DWIDTH 7 0
BBX 6 6 0 0
BITMAP
38
5C
BC
B4
5C
38
ENDCHAR
STARTCHAR A
ENCODING 65
SWIDTH 798 0
DWIDTH 11 0
BBX 11 12 0 0
BITMAP
0E00
0A00
0F00
1F00
1500
3B80
3B80
3680
7FC0
7FC0
60A0
E0E0
ENDCHAR
STARTCHAR B
ENCODING 66
SWIDTH 784 0
DWIDTH 11 0
BBX 10 12 1 0
BITMAP
FF00
BE80
BF80
C380
BF80
BE80
BF80
C1C0
C1C0
BF40
BE80
FF00
ENDCHAR
STARTCHAR C
ENCODING 67
SWIDTH 776 0
DWIDTH 11 0
BBX 10 12 0 0
BITMAP
1F80
2740
5FC0
7080
E000
E000
E000
E000
7080
5FC0
2F40
1F80
ENDCHAR
STARTCHAR D
ENCODING 68
SWIDTH 806 0
DWIDTH 11 0
BBX 10 12 1 0
BITMAP
FE00
BD00
BF80
C280
C1C0
C0C0
C0C0
C1C0
C280
BF80
BD00
FE00
ENDCHAR
STARTCHAR E
ENCODING 69
SWIDTH 677 0
DWIDTH 9 0
BBX 8 12 1 0
BITMAP
FF
BF
BF
C0
C0
BE
C0
BE
C0
BF
BF
FF
ENDCHAR
STARTCHAR F
ENCODING 70
SWIDTH 677 0
DWIDTH 9 0
BBX 8 12 1 0
BITMAP
FF
BF
BF
C0
C0
BE
C0
BE
C0
C0
C0
C0
ENDCHAR
STARTCHAR G
ENCODING 71
SWIDTH 872 0
DWIDTH 12 0
BBX 12 12 0 0
BITMAP
1F80
27C0
5F60
70C0
E000
E3F0
E3F0
E3F0
70D0
5F60
2FC0
1F80
ENDCHAR
STARTCHAR H
ENCODING 72
SWIDTH 781 0
DWIDTH 11 0
BBX 9 12 1 0
BITMAP
C180
C180
C180
C180
C180
BD80
C180
BD80
C180
C180
C180
C180
ENDCHAR
STARTCHAR I
ENCODING 73
SWIDTH 262 0
DWIDTH 4 0
BBX 2 12 1 0
BITMAP
C0
C0
C0
C0
C0
C0
C0
C0
C0
C0
C0
C0
ENDCHAR
STARTCHAR J
ENCODING 74
SWIDTH 674 0
DWIDTH 9 0
BBX 9 12 0 0
BITMAP
0380
0380
0380
0380
0380
0380
0380
E380
E380
BE80
5D00
3E00
ENDCHAR
STARTCHAR K
ENCODING 75
SWIDTH 739 0
DWIDTH 10 0
BBX 9 12 1 0
BITMAP
C380
C700
CD00
CE00
DC00
E800
B800
DC00
CA00
CD00
C700
C380
ENDCHAR
STARTCHAR L
ENCODING 76
SWIDTH 604 0
DWIDTH 8 0
BBX 7 12 1 0
BITMAP
C0
C0
C0
C0
C0
C0
C0
C0
C0
BE
BE
FE
ENDCHAR
STARTCHAR M
ENCODING 77
SWIDTH 909 0
DWIDTH 13 0
BBX 11 12 1 0
BITMAP
C0E0
A1E0
D1E0
F3E0
BAE0
EFE0
DAE0
CCE0
C8E0
C4E0
C0E0
C0E0
ENDCHAR
STARTCHAR N
ENCODING 78
SWIDTH 796 0
DWIDTH 11 0
BBX 9 12 1 0
BITMAP
C180
A180
D180
E980
B980
D580
DD80
CF80
C780
C580
C380
C180
ENDCHAR
STARTCHAR O
ENCODING 79
SWIDTH 894 0
DWIDTH 13 0
BBX 12 12 0 0
BITMAP
1F80
27C0
5F60
70F0
E050
E070
E070
E050
70B0
5F60
2FC0
1F80
ENDCHAR
STARTCHAR P
ENCODING 80
SWIDTH 743 0
DWIDTH 10 0
BBX 9 12 1 0
BITMAP
FF00
BE80
BF80
C380
BF80
BF80
BE00
C000
C000
C000
C000
C000
ENDCHAR
STARTCHAR Q
ENCODING 81
SWIDTH 911 0
DWIDTH 13 0
BBX 12 12 0 0
BITMAP
1F80
27C0
5F60
70B0
E070
E070
E070
E0F0
7160
5FB0
2F50
1FA0
ENDCHAR
STARTCHAR R
ENCODING 82
SWIDTH 745 0
DWIDTH 10 0
BBX 9 12 1 0
BITMAP
FF00
BE80
BF80
C380
BF80
BF80
BE00
CE00
C500
C700
C280
C380
ENDCHAR
STARTCHAR S
ENCODING 83
SWIDTH 660 0
DWIDTH 9 0
BBX 9 12 0 0
BITMAP
3E00
5F00
BD80
E300
E000
7C00
0F00
0380
2380
FD80
5F00
3E00
ENDCHAR
STARTCHAR T
ENCODING 84
SWIDTH 641 0
DWIDTH 9 0
BBX 9 12 0 0
BITMAP
FF80
FF80
FF80
1C00
1C00
1C00
1C00
1C00
1C00
1C00
1C00
1C00
ENDCHAR
STARTCHAR U
ENCODING 85
SWIDTH 702 0
DWIDTH 10 0
BBX 8 12 1 0
BITMAP
C3
C3
C3
C3
C3
C3
C3
C3
A7
DB
BE
7C
ENDCHAR
STARTCHAR V
ENCODING 86
SWIDTH 758 0
DWIDTH 11 0
BBX 10 12 0 0
BITMAP
E1C0
E1C0
5180
7380
7380
2B00
3F00
3B00
1600
1E00
1E00
0E00
ENDCHAR
STARTCHAR W
ENCODING 87
SWIDTH 972 0
DWIDTH 14 0
BBX 13 12 0 0
BITMAP
E318
E538
6738
5528
76B0
5BF0
36B0
2B50
3DE0
1D60
38C0
1CE0
ENDCHAR
STARTCHAR X
ENCODING 88
SWIDTH 712 0
DWIDTH 10 0
BBX 10 12 0 0
BITMAP
5380
7380
2F00
3B00
1E00
1C00
1E00
3E00
3F00
6D00
7380
E1C0
ENDCHAR
STARTCHAR Y
ENCODING 89
SWIDTH 769 0
DWIDTH 11 0
BBX 11 12 0 0
BITMAP
E1E0
71C0
5380
3D00
1F00
1D00
0200
0E00
0E00
0E00
0E00
0E00
ENDCHAR
STARTCHAR Z
ENCODING 90
SWIDTH 708 0
DWIDTH 10 0
BBX 10 12 0 0
BITMAP
7FC0
7F80
7E80
0700
0E00
0A00
1C00
2800
3800
7780
7F80
FF80
ENDCHAR
STARTCHAR bracketleft
ENCODING 91
SWIDTH 320 0
DWIDTH 4 0
BBX 3 7 1 -1
BITMAP
E0
E0
80
80
80
E0
E0
ENDCHAR
STARTCHAR backslash
ENCODING 92
SWIDTH 298 0
DWIDTH 4 0
BBX 4 6 0 0
BITMAP
C0
40
60
60
20
30
ENDCHAR
STARTCHAR bracketright
ENCODING 93
SWIDTH 320 0
DWIDTH 4 0
BBX 3 7 1 -1
BITMAP
E0
E0
60
60
60
E0
E0
ENDCHAR
STARTCHAR asciicircum
ENCODING 94
SWIDTH 309 0
DWIDTH 4 0
BBX 3 3 1 3
BITMAP
40
40
E0
ENDCHAR
STARTCHAR underscore
ENCODING 95
SWIDTH 472 0
DWIDTH 7 0
BBX 5 2 1 0
BITMAP
F8
F8
ENDCHAR
STARTCHAR grave
ENCODING 96
SWIDTH 195 0
DWIDTH 3 0
BBX 1 2 1 7
BITMAP
80
80
ENDCHAR
STARTCHAR a
ENCODING 97
SWIDTH 414 0
DWIDTH 6 0
BBX 6 6 0 0
BITMAP
30
70
68
78
B8
FC
ENDCHAR
STARTCHAR b
ENCODING 98
SWIDTH 423 0
DWIDTH 6 0
BBX 5 6 1 0
BITMAP
F0
E8
F0
E8
F8
F0
ENDCHAR
STARTCHAR c
ENCODING 99
SWIDTH 446 0
DWIDTH 6 0
BBX 6 6 0 0
BITMAP
38
7C
C0
C0
7C
38
ENDCHAR
STARTCHAR d
ENCODING 100
SWIDTH 450 0
DWIDTH 6 0
BBX 5 6 1 0
BITMAP
F0
E8
98
98
E8
F0
ENDCHAR
STARTCHAR e
ENCODING 101
SWIDTH 363 0
DWIDTH 5 0
BBX 4 6 1 0
BITMAP
F0
F0
E0
E0
F0
F0
ENDCHAR
STARTCHAR f
ENCODING 102
SWIDTH 365 0
DWIDTH 5 0
BBX 4 6 1 0
BITMAP
F0
F0
E0
E0
80
80
ENDCHAR
STARTCHAR g
ENCODING 103
SWIDTH 483 0
DWIDTH 7 0
BBX 6 6 0 0
BITMAP
38
7C
CC
CC
74
38
ENDCHAR
STARTCHAR h
ENCODING 104
SWIDTH 428 0
DWIDTH 6 0
BBX 4 6 1 0
BITMAP
90
90
F0
F0
90
90
ENDCHAR
STARTCHAR i
ENCODING 105
SWIDTH 176 0
DWIDTH 2 0
BBX 1 6 1 0
BITMAP
80
80
80
80
80
80
ENDCHAR
STARTCHAR j
ENCODING 106
SWIDTH 390 0
DWIDTH 5 0
BBX 5 6 0 0
BITMAP
08
08
08
C8
B8
70
ENDCHAR
STARTCHAR k
ENCODING 107
SWIDTH 381 0
DWIDTH 5 0
BBX 4 6 1 0
BITMAP
B0
E0
E0
A0
E0
B0
ENDCHAR
STARTCHAR l
ENCODING 108
SWIDTH 330 0
DWIDTH 5 0
BBX 3 6 1 0
BITMAP
80
80
80
80
E0
E0
ENDCHAR
STARTCHAR m
ENCODING 109
SWIDTH 501 0
DWIDTH 7 0
BBX 5 6 1 0
BITMAP
88
D8
F8
A8
88
88
ENDCHAR
STARTCHAR n
ENCODING 110
SWIDTH 444 0
DWIDTH 6 0
BBX 5 6 1 0
BITMAP
98
D8
B8
D8
B8
98
ENDCHAR
STARTCHAR o
ENCODING 111
SWIDTH 494 0
DWIDTH 7 0
BBX 7 6 0 0
BITMAP
38
7C
C4
C6
7C
38
ENDCHAR
STARTCHAR p
ENCODING 112
SWIDTH 412 0
DWIDTH 6 0
BBX 4 6 1 0
BITMAP
F0
F0
F0
E0
80
80
ENDCHAR
STARTCHAR q
ENCODING 113
SWIDTH 494 0
DWIDTH 7 0
BBX 7 6 0 0
BITMAP
38
7C
C4
CA
7E
3C
ENDCHAR
STARTCHAR r
ENCODING 114
SWIDTH 412 0
DWIDTH 6 0
BBX 4 6 1 0
BITMAP
F0
F0
F0
E0
B0
B0
ENDCHAR
STARTCHAR s
ENCODING 115
SWIDTH 379 0
DWIDTH 5 0
BBX 5 6 0 0
BITMAP
70
B8
60
18
F8
70
ENDCHAR
STARTCHAR t
ENCODING 116
SWIDTH 349 0
DWIDTH 5 0
BBX 5 6 0 0
BITMAP
F8
F8
60
60
60
60
ENDCHAR
STARTCHAR u
ENCODING 117
SWIDTH 400 0
DWIDTH 6 0
BBX 4 6 1 0
BITMAP
B0
B0
B0
B0
F0
E0
ENDCHAR
STARTCHAR v
ENCODING 118
SWIDTH 394 0
DWIDTH 6 0
BBX 5 6 0 0
BITMAP
C8
D8
58
68
70
30
ENDCHAR
STARTCHAR w
ENCODING 119
SWIDTH 521 0
DWIDTH 7 0
BBX 7 6 0 0
BITMAP
DE
6E
BE
7A
6C
2C
ENDCHAR
STARTCHAR x
ENCODING 120
SWIDTH 369 0
DWIDTH 5 0
BBX 5 6 0 0
BITMAP
D8
70
50
70
70
D8
ENDCHAR
STARTCHAR y
ENCODING 121
SWIDTH 422 0
DWIDTH 6 0
BBX 6 6 0 0
BITMAP
CC
78
50
20
30
30
ENDCHAR
STARTCHAR z
ENCODING 122
SWIDTH 409 0
DWIDTH 6 0
BBX 4 6 1 0
BITMAP
F0
F0
60
C0
F0
F0
ENDCHAR
STARTCHAR braceleft
ENCODING 123
SWIDTH 443 0
DWIDTH 6 0
BBX 5 7 1 -1
BITMAP
78
78
E0
E0
60
78
78
ENDCHAR
STARTCHAR bar
ENCODING 124
SWIDTH 196 0
DWIDTH 3 0
BBX 1 7 1 0
BITMAP
80
80
80
80
80
80
80
ENDCHAR
STARTCHAR braceright
ENCODING 125
SWIDTH 506 0
DWIDTH 7 0
BBX 4 7 2 -1
BITMAP
E0
E0
70
70
60
E0
E0
ENDCHAR
STARTCHAR asciitilde
ENCODING 126
SWIDTH 450 0
DWIDTH 6 0
BBX 5 3 1 2
BITMAP
C8
F8
B0
ENDCHAR
STARTCHAR uni00A0
ENCODING 160
SWIDTH 280 0
DWIDTH 4 0
BBX 1 1 0 0
BITMAP
00
ENDCHAR
STARTCHAR exclamdown
ENCODING 161
SWIDTH 196 0
DWIDTH 3 0
BBX 1 6 1 -2
BITMAP
80
00
80
80
80
80
ENDCHAR
STARTCHAR cent
ENCODING 162
SWIDTH 305 0
DWIDTH 4 0
BBX 4 7 0 -1
BITMAP
60
60
F0
80
F0
60
60
ENDCHAR
STARTCHAR sterling
ENCODING 163
SWIDTH 408 0
DWIDTH 6 0
BBX 5 6 0 0
BITMAP
70
E8
F0
F0
F8
F8
ENDCHAR
STARTCHAR currency
ENCODING 164
SWIDTH 401 0
DWIDTH 6 0
BBX 5 6 0 0
BITMAP
48
B8
70
70
A8
48
ENDCHAR
STARTCHAR yen
ENCODING 165
SWIDTH 423 0
DWIDTH 6 0
BBX 6 6 0 0
BITMAP
CC
78
50
20
78
78
ENDCHAR
STARTCHAR brokenbar
ENCODING 166
SWIDTH 196 0
DWIDTH 3 0
BBX 1 7 1 0
BITMAP
80
80
80
00
80
80
80
ENDCHAR
STARTCHAR section
ENCODING 167
SWIDTH 322 0
DWIDTH 5 0
BBX 4 6 0 0
BITMAP
70
A0
F0
F0
70
F0
ENDCHAR
STARTCHAR dieresis
ENCODING 168
SWIDTH 287 0
DWIDTH 4 0
BBX 2 1 1 7
BITMAP
C0
ENDCHAR
STARTCHAR copyright
ENCODING 169
SWIDTH 493 0
DWIDTH 7 0
BBX 6 7 0 0
BITMAP
38
44
9C
A4
9C
44
38
ENDCHAR
STARTCHAR ordfeminine
ENCODING 170
SWIDTH 331 0
DWIDTH 5 0
BBX 3 3 1 3
BITMAP
E0
C0
E0
ENDCHAR
STARTCHAR guillemotleft
ENCODING 171
SWIDTH 298 0
DWIDTH 4 0
BBX 3 3 1 1
BITMAP
E0
C0
A0
ENDCHAR
STARTCHAR logicalnot
ENCODING 172
SWIDTH 420 0
DWIDTH 6 0
BBX 4 3 1 1
BITMAP
F0
F0
10
ENDCHAR
STARTCHAR uni00AD
ENCODING 173
SWIDTH 326 0
DWIDTH 5 0
BBX 3 2 1 2
BITMAP
E0
E0
ENDCHAR
STARTCHAR registered
ENCODING 174
SWIDTH 493 0
DWIDTH 7 0
BBX 6 7 0 0
BITMAP
38
44
BC
B4
AC
44
38
ENDCHAR
STARTCHAR macron
ENCODING 175
SWIDTH 331 0
DWIDTH 5 0
BBX 3 1 1 7
BITMAP
E0
ENDCHAR
STARTCHAR degree
ENCODING 176
SWIDTH 298 0
DWIDTH 4 0
BBX 3 4 1 3
BITMAP
C0
E0
A0
C0
ENDCHAR
STARTCHAR plusminus
ENCODING 177
SWIDTH 418 0
DWIDTH 6 0
BBX 4 6 1 0
BITMAP
60
F0
F0
60
F0
F0
ENDCHAR
STARTCHAR uni00B2
ENCODING 178
SWIDTH 233 0
DWIDTH 3 0
BBX 2 3 1 3
BITMAP
C0
80
C0
ENDCHAR
STARTCHAR uni00B3
ENCODING 179
SWIDTH 228 0
DWIDTH 3 0
BBX 1 3 1 3
BITMAP
80
80
80
ENDCHAR
STARTCHAR acute
ENCODING 180
SWIDTH 195 0
DWIDTH 3 0
BBX 1 2 1 7
BITMAP
80
80
ENDCHAR
STARTCHAR uni00B5
ENCODING 181
SWIDTH 506 0
DWIDTH 7 0
BBX 6 7 1 -1
BITMAP
90
90
90
90
E8
FC
80
ENDCHAR
STARTCHAR paragraph
ENCODING 182
SWIDTH 435 0
DWIDTH 6 0
BBX 5 6 0 0
BITMAP
78
F8
E8
68
18
18
ENDCHAR
STARTCHAR periodcentered
ENCODING 183
SWIDTH 176 0
DWIDTH 2 0
BBX 1 1 1 3
BITMAP
80
ENDCHAR
STARTCHAR cedilla
ENCODING 184
SWIDTH 261 0
DWIDTH 4 0
BBX 2 3 1 -3
BITMAP
C0
40
80
ENDCHAR
STARTCHAR uni00B9
ENCODING 185
SWIDTH 218 0
DWIDTH 3 0
BBX 1 3 1 3
BITMAP
80
80
80
ENDCHAR
STARTCHAR ordmasculine
ENCODING 186
SWIDTH 335 0
DWIDTH 5 0
BBX 3 3 1 3
BITMAP
E0
A0
E0
ENDCHAR
STARTCHAR guillemotright
ENCODING 187
SWIDTH 298 0
DWIDTH 4 0
BBX 3 3 1 1
BITMAP
E0
E0
C0
ENDCHAR
STARTCHAR onequarter
ENCODING 188
SWIDTH 429 0
DWIDTH 6 0
BBX 6 6 0 0
BITMAP
C8
C8
50
18
28
6C
ENDCHAR
STARTCHAR onehalf
ENCODING 189
SWIDTH 437 0
DWIDTH 6 0
BBX 6 6 0 0
BITMAP
C8
50
58
2C
2C
4C
ENDCHAR
STARTCHAR threequarters
ENCODING 190
SWIDTH 409 0
DWIDTH 6 0
BBX 5 6 0 0
BITMAP
C8
50
D0
28
30
58
ENDCHAR
STARTCHAR questiondown
ENCODING 191
SWIDTH 346 0
DWIDTH 5 0
BBX 3 6 1 -1
BITMAP
C0
C0
C0
80
E0
C0
ENDCHAR
STARTCHAR Agrave
ENCODING 192
SWIDTH 798 0
DWIDTH 11 0
BBX 11 16 0 0
BITMAP
1800
0C00
0C00
0000
0E00
0A00
0F00
1F00
1500
3B80
3B80
3680
7FC0
7FC0
60A0
E0E0
ENDCHAR
STARTCHAR Aacute
ENCODING 193
SWIDTH 798 0
DWIDTH 11 0
BBX 11 16 0 0
BITMAP
0300
0200
0600
0000
0E00
0A00
0F00
1F00
1500
3B80
3B80
3680
7FC0
7FC0
60A0
E0E0
ENDCHAR
STARTCHAR Acircumflex
ENCODING 194
SWIDTH 798 0
DWIDTH 11 0
BBX 11 16 0 0
BITMAP
0E00
1D00
3300
0000
0E00
0A00
0F00
1F00
1500
3B80
3B80
3680
7FC0
7FC0
60A0
E0E0
ENDCHAR
STARTCHAR Atilde
ENCODING 195
SWIDTH 798 0
DWIDTH 11 0
BBX 11 14 0 0
BITMAP
0C80
1300
0E00
0A00
0F00
1F00
1500
3B80
3B80
3680
7FC0
7FC0
60A0
E0E0
ENDCHAR
STARTCHAR Adieresis
ENCODING 196
SWIDTH 798 0
DWIDTH 11 0
BBX 11 15 0 0
BITMAP
1900
2A80
1900
0E00
0A00
0F00
1F00
1500
3B80
3B80
3680
7FC0
7FC0
60A0
E0E0
ENDCHAR
STARTCHAR Aring
ENCODING 197
SWIDTH 798 0
DWIDTH 11 0
BBX 11 16 0 0
BITMAP
0400
0A00
0A00
0400
0E00
0A00
0F00
1F00
1500
3B80
3B80
3680
7FC0
7FC0
60A0
E0E0
ENDCHAR
STARTCHAR AE
ENCODING 198
SWIDTH 1078 0
DWIDTH 15 0
BBX 15 12 0 0
BITMAP
02FE
077E
07FE
0B80
0D80
1EFC
1F80
39BC
3D40
76BE
7FBE
E1FE
ENDCHAR
STARTCHAR Ccedilla
ENCODING 199
SWIDTH 776 0
DWIDTH 11 0
BBX 10 16 0 -4
BITMAP
1F80
2740
5FC0
7080
E000
E000
E000
E000
7080
5FC0
2F40
1B80
0400
0E00
0200
0E00
ENDCHAR
STARTCHAR Egrave
ENCODING 200
SWIDTH 677 0
DWIDTH 9 0
BBX 8 16 1 0
BITMAP
18
18
0C
00
FF
BF
BF
C0
C0
BE
C0
BE
C0
BF
BF
FF
ENDCHAR
STARTCHAR Eacute
ENCODING 201
SWIDTH 677 0
DWIDTH 9 0
BBX 8 16 1 0
BITMAP
0C
18
18
00
FF
BF
BF
C0
C0
BE
C0
BE
C0
BF
BF
FF
ENDCHAR
STARTCHAR Ecircumflex
ENCODING 202
SWIDTH 677 0
DWIDTH 9 0
BBX 8 16 1 0
BITMAP
18
3C
76
00
FF
BF
BF
C0
C0
BE
C0
BE
C0
BF
BF
FF
ENDCHAR
STARTCHAR Edieresis
ENCODING 203
SWIDTH 677 0
DWIDTH 9 0
BBX 8 15 1 0
BITMAP
22
55
22
DD
BF
BF
C0
C0
BE
C0
BE
C0
BF
BF
FF
ENDCHAR
STARTCHAR Igrave
ENCODING 204
SWIDTH 262 0
DWIDTH 4 0
BBX 4 16 -1 0
BITMAP
C0
60
70
00
70
70
70
70
70
70
70
70
70
70
70
70
ENDCHAR
STARTCHAR Iacute
ENCODING 205
SWIDTH 262 0
DWIDTH 4 0
BBX 3 16 1 0
BITMAP
60
40
C0
00
C0
C0
C0
C0
C0
C0
C0
C0
C0
C0
C0
C0
ENDCHAR
STARTCHAR Icircumflex
ENCODING 206
SWIDTH 262 0
DWIDTH 4 0
BBX 6 16 -1 0
BITMAP
70
58
DC
00
70
70
70
70
70
70
70
70
70
70
70
70
ENDCHAR
STARTCHAR Idieresis
ENCODING 207
SWIDTH 262 0
DWIDTH 4 0
BBX 6 15 -1 0
BITMAP
CC
B4
CC
70
70
70
70
70
70
70
70
70
70
70
70
ENDCHAR
STARTCHAR Eth
ENCODING 208
SWIDTH 856 0
DWIDTH 12 0
BBX 12 12 0 0
BITMAP
7F80
7E40
7FA0
70E0
0050
FC70
0070
FC50
70E0
7FA0
7F40
7F80
ENDCHAR
STARTCHAR Ntilde
ENCODING 209
SWIDTH 796 0
DWIDTH 11 0
BBX 9 14 1 0
BITMAP
1900
2600
C180
A180
D180
E980
B980
D580
DD80
CF80
C780
C580
C380
C180
ENDCHAR
STARTCHAR Ograve
ENCODING 210
SWIDTH 894 0
DWIDTH 13 0
BBX 12 16 0 0
BITMAP
0C00
0A00
0600
0000
1F80
27C0
5F60
70F0
E050
E070
E070
E050
70B0
5F60
2FC0
1F80
ENDCHAR
STARTCHAR Oacute
ENCODING 211
SWIDTH 894 0
DWIDTH 13 0
BBX 12 16 0 0
BITMAP
0280
0300
0600
0000
1F80
27C0
5F60
70F0
E050
E070
E070
E050
70B0
5F60
2FC0
1F80
ENDCHAR
STARTCHAR Ocircumflex
ENCODING 212
SWIDTH 894 0
DWIDTH 13 0
BBX 12 16 0 0
BITMAP
0600
0F00
1980
0000
1F80
27C0
5F60
70F0
E050
E070
E070
E050
70B0
5F60
2FC0
1F80
ENDCHAR
STARTCHAR Otilde
ENCODING 213
SWIDTH 894 0
DWIDTH 13 0
BBX 12 14 0 0
BITMAP
0C80
1300
1F80
27C0
5F60
70F0
E050
E070
E070
E050
70B0
5F60
2FC0
1F80
ENDCHAR
STARTCHAR Odieresis
ENCODING 214
SWIDTH 894 0
DWIDTH 13 0
BBX 12 15 0 0
BITMAP
0980
1540
0980
1F80
27C0
5F60
70F0
E050
E070
E070
E050
70B0
5F60
2FC0
1F80
ENDCHAR
STARTCHAR multiply
ENCODING 215
SWIDTH 370 0
DWIDTH 5 0
BBX 4 4 1 1
BITMAP
A0
D0
A0
F0
ENDCHAR
STARTCHAR Oslash
ENCODING 216
SWIDTH 894 0
DWIDTH 13 0
BBX 12 12 0 0
BITMAP
1FC0
27A0
5EE0
71D0
E370
EDF0
EB30
DC70
74F0
5F60
77C0
2F80
ENDCHAR
STARTCHAR Ugrave
ENCODING 217
SWIDTH 702 0
DWIDTH 10 0
BBX 8 16 1 0
BITMAP
60
30
28
10
C3
C3
C3
C3
C3
C3
C3
C3
A7
DB
BE
7C
ENDCHAR
STARTCHAR Uacute
ENCODING 218
SWIDTH 702 0
DWIDTH 10 0
BBX 8 16 1 0
BITMAP
0C
0C
18
00
C3
C3
C3
C3
C3
C3
C3
C3
A7
DB
BE
7C
ENDCHAR
STARTCHAR Ucircumflex
ENCODING 219
SWIDTH 702 0
DWIDTH 10 0
BBX 8 16 1 0
BITMAP
38
34
6E
00
C3
C3
C3
C3
C3
C3
C3
C3
A7
DB
BE
7C
ENDCHAR
STARTCHAR Udieresis
ENCODING 220
SWIDTH 702 0
DWIDTH 10 0
BBX 8 15 1 0
BITMAP
66
9A
66
C3
C3
C3
C3
C3
C3
C3
C3
A7
DB
BE
7C
ENDCHAR
STARTCHAR Yacute
ENCODING 221
SWIDTH 769 0
DWIDTH 11 0
BBX 11 16 0 0
BITMAP
0300
0600
0400
0000
E1E0
71C0
5380
3D00
1F00
1D00
0200
0E00
0E00
0E00
0E00
0E00
ENDCHAR
STARTCHAR Thorn
ENCODING 222
SWIDTH 743 0
DWIDTH 10 0
BBX 9 12 1 0
BITMAP
C000
C000
BE00
BF00
BF80
C380
C380
BF80
BF00
BE00
C000
C000
ENDCHAR
STARTCHAR germandbls
ENCODING 223
SWIDTH 424 0
DWIDTH 6 0
BBX 5 6 1 0
BITMAP
F0
F0
B0
A8
B8
B0
ENDCHAR
STARTCHAR agrave
ENCODING 224
SWIDTH 414 0
DWIDTH 6 0
BBX 6 9 0 0
BITMAP
20
20
00
30
70
68
78
B8
FC
ENDCHAR
STARTCHAR aacute
ENCODING 225
SWIDTH 414 0
DWIDTH 6 0
BBX 6 9 0 0
BITMAP
10
10
00
30
70
68
78
B8
FC
ENDCHAR
STARTCHAR acircumflex
ENCODING 226
SWIDTH 414 0
DWIDTH 6 0
BBX 6 9 0 0
BITMAP
20
70
00
30
70
68
78
B8
FC
ENDCHAR
STARTCHAR atilde
ENCODING 227
SWIDTH 414 0
DWIDTH 6 0
BBX 6 9 0 0
BITMAP
28
50
00
30
70
68
78
B8
FC
ENDCHAR
STARTCHAR adieresis
ENCODING 228
SWIDTH 414 0
DWIDTH 6 0
BBX 6 8 0 0
BITMAP
30
00
30
70
68
78
B8
FC
ENDCHAR
STARTCHAR aring
ENCODING 229
SWIDTH 414 0
DWIDTH 6 0
BBX 6 8 0 0
BITMAP
30
20
30
70
68
78
B8
FC
ENDCHAR
STARTCHAR ae
ENCODING 230
SWIDTH 593 0
DWIDTH 8 0
BBX 8 6 0 0
BITMAP
1F
3F
37
77
77
CF
ENDCHAR
STARTCHAR ccedilla
ENCODING 231
SWIDTH 446 0
DWIDTH 6 0
BBX 6 9 0 -3
BITMAP
38
7C
C0
C0
7C
28
30
08
30
ENDCHAR
STARTCHAR egrave
ENCODING 232
SWIDTH 363 0
DWIDTH 5 0
BBX 4 9 1 0
BITMAP
40
40
00
F0
F0
E0
E0
F0
F0
ENDCHAR
STARTCHAR eacute
ENCODING 233
SWIDTH 363 0
DWIDTH 5 0
BBX 4 9 1 0
BITMAP
20
20
00
F0
F0
E0
E0
F0
F0
ENDCHAR
STARTCHAR ecircumflex
ENCODING 234
SWIDTH 363 0
DWIDTH 5 0
BBX 4 9 1 0
BITMAP
40
E0
00
F0
F0
E0
E0
F0
F0
ENDCHAR
STARTCHAR edieresis
ENCODING 235
SWIDTH 363 0
DWIDTH 5 0
BBX 4 8 1 0
BITMAP
60
00
F0
F0
E0
E0
F0
F0
ENDCHAR
STARTCHAR igrave
ENCODING 236
SWIDTH 176 0
DWIDTH 2 0
BBX 2 9 0 0
BITMAP
80
80
00
40
40
40
40
40
40
ENDCHAR
STARTCHAR iacute
ENCODING 237
SWIDTH 176 0
DWIDTH 2 0
BBX 1 9 1 0
BITMAP
80
80
00
80
80
80
80
80
80
ENDCHAR
STARTCHAR icircumflex
ENCODING 238
SWIDTH 176 0
DWIDTH 2 0
BBX 3 9 0 0
BITMAP
40
C0
20
40
40
40
40
40
40
ENDCHAR
STARTCHAR idieresis
ENCODING 239
SWIDTH 176 0
DWIDTH 2 0
BBX 3 8 0 0
BITMAP
A0
00
40
40
40
40
40
40
ENDCHAR
STARTCHAR eth
ENCODING 240
SWIDTH 455 0
DWIDTH 6 0
BBX 6 6 0 0
BITMAP
F8
B4
0C
EC
B4
F8
ENDCHAR
STARTCHAR ntilde
ENCODING 241
SWIDTH 444 0
DWIDTH 6 0
BBX 5 9 1 0
BITMAP
50
A0
00
98
D8
B8
D8
B8
98
ENDCHAR
STARTCHAR ograve
ENCODING 242
SWIDTH 494 0
DWIDTH 7 0
BBX 7 9 0 0
BITMAP
20
10
00
38
7C
C4
C6
7C
38
ENDCHAR
STARTCHAR oacute
ENCODING 243
SWIDTH 494 0
DWIDTH 7 0
BBX 7 9 0 0
BITMAP
08
10
00
38
7C
C4
C6
7C
38
ENDCHAR
STARTCHAR ocircumflex
ENCODING 244
SWIDTH 494 0
DWIDTH 7 0
BBX 7 9 0 0
BITMAP
10
28
00
38
7C
C4
C6
7C
38
ENDCHAR
STARTCHAR otilde
ENCODING 245
SWIDTH 494 0
DWIDTH 7 0
BBX 7 9 0 0
BITMAP
28
38
00
38
7C
C4
C6
7C
38
ENDCHAR
STARTCHAR odieresis
ENCODING 246
SWIDTH 494 0
DWIDTH 7 0
BBX 7 8 0 0
BITMAP
28
00
38
7C
C4
C6
7C
38
ENDCHAR
STARTCHAR divide
ENCODING 247
SWIDTH 418 0
DWIDTH 6 0
BBX 4 5 1 0
BITMAP
40
F0
F0
40
60
ENDCHAR
STARTCHAR oslash
ENCODING 248
SWIDTH 494 0
DWIDTH 7 0
BBX 7 6 0 0
BITMAP
7C
B8
D4
66
3C
78
ENDCHAR
STARTCHAR ugrave
ENCODING 249
SWIDTH 400 0
DWIDTH 6 0
BBX 4 9 1 0
BITMAP
80
40
00
B0
B0
B0
B0
F0
E0
ENDCHAR
STARTCHAR uacute
ENCODING 250
SWIDTH 400 0
DWIDTH 6 0
BBX 4 9 1 0
BITMAP
20
20
00
B0
B0
B0
B0
F0
E0
ENDCHAR
STARTCHAR ucircumflex
ENCODING 251
SWIDTH 400 0
DWIDTH 6 0
BBX 4 9 1 0
BITMAP
40
A0
00
B0
B0
B0
B0
F0
E0
ENDCHAR
STARTCHAR udieresis
ENCODING 252
SWIDTH 400 0
DWIDTH 6 0
BBX 4 8 1 0
BITMAP
A0
00
B0
B0
B0
B0
F0
E0
ENDCHAR
STARTCHAR yacute
ENCODING 253
SWIDTH 422 0
DWIDTH 6 0
BBX 6 9 0 0
BITMAP
10
10
00
CC
78
50
20
30
30
ENDCHAR
STARTCHAR thorn
ENCODING 254
SWIDTH 412 0
DWIDTH 6 0
BBX 4 6 1 0
BITMAP
80
F0
F0
F0
F0
80
ENDCHAR
STARTCHAR ydieresis
ENCODING 255
SWIDTH 422 0
DWIDTH 6 0
BBX 6 8 0 0
BITMAP
30
00
CC
78
50
20
30
30
ENDCHAR
STARTCHAR Edotaccent
ENCODING 278
SWIDTH 677 0
DWIDTH 9 0
BBX 8 14 1 0
BITMAP
08
00
FF
BF
BF
C0
C0
BE
C0
BE
C0
BF
BF
FF
ENDCHAR
STARTCHAR edotaccent
ENCODING 279
SWIDTH 363 0
DWIDTH 5 0
BBX 4 8 1 0
BITMAP
60
00
F0
F0
E0
E0
F0
F0
ENDCHAR
STARTCHAR dotlessi
ENCODING 305
SWIDTH 176 0
DWIDTH 2 0
BBX 1 6 1 0
BITMAP
80
80
80
80
80
80
ENDCHAR
STARTCHAR OE
ENCODING 338
SWIDTH 1221 0
DWIDTH 17 0
BBX 17 12 0 0
BITMAP
1FFF80
27DF80
5FDF80
70E000
E0E000
E0DF00
E0E000
E0DF00
70E000
5FDF80
2FDF80
1FFF80
ENDCHAR
STARTCHAR oe
ENCODING 339
SWIDTH 637 0
DWIDTH 9 0
BBX 9 6 0 0
BITMAP
3F80
7B80
CB00
CB00
7B80
3F80
ENDCHAR
STARTCHAR Wcircumflex
ENCODING 372
SWIDTH 972 0
DWIDTH 14 0
BBX 13 16 0 0
BITMAP
0700
0A80
0DC0
0000
E318
E538
6738
5528
76B0
5BF0
36B0
2B50
3DE0
1D60
38C0
1CE0
ENDCHAR
STARTCHAR wcircumflex
ENCODING 373
SWIDTH 521 0
DWIDTH 7 0
BBX 7 9 0 0
BITMAP
10
28
00
DE
6E
BE
7A
6C
2C
ENDCHAR
STARTCHAR Ycircumflex
ENCODING 374
SWIDTH 769 0
DWIDTH 11 0
BBX 11 16 0 0
BITMAP
0C00
1E00
3B00
0000
E1E0
71C0
5380
3D00
1F00
1D00
0200
0E00
0E00
0E00
0E00
0E00
ENDCHAR
STARTCHAR ycircumflex
ENCODING 375
SWIDTH 422 0
DWIDTH 6 0
BBX 6 9 0 0
BITMAP
20
70
00
CC
78
50
20
30
30
ENDCHAR
STARTCHAR Ydieresis
ENCODING 376
SWIDTH 769 0
DWIDTH 11 0
BBX 11 15 0 0
BITMAP
1300
2A80
1300
E1E0
71C0
5380
3D00
1F00
1D00
0200
0E00
0E00
0E00
0E00
0E00
ENDCHAR
STARTCHAR circumflex
ENCODING 710
SWIDTH 298 0
DWIDTH 4 0
BBX 2 2 1 7
BITMAP
40
C0
ENDCHAR
STARTCHAR dotaccent
ENCODING 729
SWIDTH 212 0
DWIDTH 3 0
BBX 1 1 1 7
BITMAP
80
ENDCHAR
STARTCHAR ring
ENCODING 730
SWIDTH 212 0
DWIDTH 3 0
BBX 1 2 1 6
BITMAP
80
80
ENDCHAR
STARTCHAR tilde
ENCODING 732
SWIDTH 329 0
DWIDTH 5 0
BBX 3 2 1 7
BITMAP
A0
E0
ENDCHAR
STARTCHAR gravecomb
ENCODING 768
SWIDTH 0 0
DWIDTH 0 0
BBX 1 2 1 7
BITMAP
80
80
ENDCHAR
STARTCHAR acutecomb
ENCODING 769
SWIDTH 0 0
DWIDTH 0 0
BBX 1 2 1 7
BITMAP
80
80
ENDCHAR
STARTCHAR uni0302
ENCODING 770
SWIDTH 0 0
DWIDTH 0 0
BBX 2 2 1 7
BITMAP
40
C0
ENDCHAR
STARTCHAR tildecomb
ENCODING 771
SWIDTH 0 0
DWIDTH 0 0
BBX 3 2 1 7
BITMAP
A0
E0
ENDCHAR
STARTCHAR uni0307
ENCODING 775
SWIDTH 0 0
DWIDTH 0 0
BBX 1 1 1 7
BITMAP
80
ENDCHAR
STARTCHAR uni0308
ENCODING 776
SWIDTH 0 0
DWIDTH 0 0
BBX 2 1 1 7
BITMAP
C0
ENDCHAR
STARTCHAR uni030A
ENCODING 778
SWIDTH 0 0
DWIDTH 0 0
BBX 1 2 1 6
BITMAP
80
80
ENDCHAR
STARTCHAR uni0327
ENCODING 807
SWIDTH 0 0
DWIDTH 0 0
BBX 2 3 1 -3
BITMAP
C0
40
80
ENDCHAR
STARTCHAR Wgrave
ENCODING 7808
SWIDTH 972 0
DWIDTH 14 0
BBX 13 16 0 0
BITMAP
0600
0300
0300
0000
E318
E538
6738
5528
76B0
5BF0
36B0
2B50
3DE0
1D60
38C0
1CE0
ENDCHAR
STARTCHAR wgrave
ENCODING 7809
SWIDTH 521 0
DWIDTH 7 0
BBX 7 9 0 0
BITMAP
10
10
00
DE
6E
BE
7A
6C
2C
ENDCHAR
STARTCHAR Wacute
ENCODING 7810
SWIDTH 972 0
DWIDTH 14 0
BBX 13 16 0 0
BITMAP
0300
0300
0600
0000
E318
E538
6738
5528
76B0
5BF0
36B0
2B50
3DE0
1D60
38C0
1CE0
ENDCHAR
STARTCHAR wacute
ENCODING 7811
SWIDTH 521 0
DWIDTH 7 0
BBX 7 9 0 0
BITMAP
08
10
00
DE
6E
BE
7A
6C
2C
ENDCHAR
STARTCHAR Wdieresis
ENCODING 7812
SWIDTH 972 0
DWIDTH 14 0
BBX 13 15 0 0
BITMAP
0CC0
1340
0CC0
E318
E538
6738
5528
76B0
5BF0
36B0
2B50
3DE0
1D60
38C0
1CE0
ENDCHAR
STARTCHAR wdieresis
ENCODING 7813
SWIDTH 521 0
DWIDTH 7 0
BBX 7 8 0 0
BITMAP
28
00
DE
6E
BE
7A
6C
2C
ENDCHAR
STARTCHAR uni1E9E
ENCODING 7838
SWIDTH 784 0
DWIDTH 11 0
BBX 9 12 1 0
BITMAP
FF00
BF00
BF00
C700
CA00
CF00
DD80
C380
C180
DE80
DF80
DF00
ENDCHAR
STARTCHAR Ygrave
ENCODING 7922
SWIDTH 769 0
DWIDTH 11 0
BBX 11 16 0 0
BITMAP
0C00
0C00
0600
0000
E1E0
71C0
5380
3D00
1F00
1D00
0200
0E00
0E00
0E00
0E00
0E00
ENDCHAR
STARTCHAR ygrave
ENCODING 7923
SWIDTH 422 0
DWIDTH 6 0
BBX 6 9 0 0
BITMAP
20
10
00
CC
78
50
20
30
30
ENDCHAR
STARTCHAR endash
ENCODING 8211
SWIDTH 507 0
DWIDTH 7 0
BBX 5 2 1 2
BITMAP
F8
F8
ENDCHAR
STARTCHAR emdash
ENCODING 8212
SWIDTH 552 0
DWIDTH 8 0
BBX 6 2 1 2
BITMAP
FC
FC
ENDCHAR
STARTCHAR quoteleft
ENCODING 8216
SWIDTH 146 0
DWIDTH 2 0
BBX 2 2 0 4
BITMAP
80
C0
ENDCHAR
STARTCHAR quoteright
ENCODING 8217
SWIDTH 146 0
DWIDTH 2 0
BBX 2 2 0 4
BITMAP
C0
40
ENDCHAR
STARTCHAR quotesinglbase
ENCODING 8218
SWIDTH 146 0
DWIDTH 2 0
BBX 2 2 0 -2
BITMAP
C0
40
ENDCHAR
STARTCHAR quotedblleft
ENCODING 8220
SWIDTH 297 0
DWIDTH 4 0
BBX 4 2 0 4
BITMAP
A0
F0
ENDCHAR
STARTCHAR quotedblright
ENCODING 8221
SWIDTH 297 0
DWIDTH 4 0
BBX 4 2 0 4
BITMAP
F0
50
ENDCHAR
STARTCHAR quotedblbase
ENCODING 8222
SWIDTH 297 0
DWIDTH 4 0
BBX 4 2 0 -2
BITMAP
F0
50
ENDCHAR
STARTCHAR bullet
ENCODING 8226
SWIDTH 302 0
DWIDTH 4 0
BBX 3 4 1 1
BITMAP
C0
A0
A0
C0
ENDCHAR
STARTCHAR ellipsis
ENCODING 8230
SWIDTH 528 0
DWIDTH 7 0
BBX 6 1 1 0
BITMAP
AC
ENDCHAR
STARTCHAR guilsinglleft
ENCODING 8249
SWIDTH 178 0
DWIDTH 2 0
BBX 1 3 1 1
BITMAP
80
80
80
ENDCHAR
STARTCHAR guilsinglright
ENCODING 8250
SWIDTH 178 0
DWIDTH 2 0
BBX 1 3 1 1
BITMAP
80
80
80
ENDCHAR
STARTCHAR fraction
ENCODING 8260
SWIDTH 362 0
DWIDTH 5 0
BBX 5 6 0 0
BITMAP
18
30
30
60
60
C0
ENDCHAR
STARTCHAR uni2074
ENCODING 8308
SWIDTH 204 0
DWIDTH 3 0
BBX 2 3 0 3
BITMAP
40
80
C0
ENDCHAR
STARTCHAR Euro
ENCODING 8364
SWIDTH 462 0
DWIDTH 6 0
BBX 6 6 0 0
BITMAP
38
5C
E0
E0
5C
38
ENDCHAR
STARTCHAR trademark
ENCODING 8482
SWIDTH 461 0
DWIDTH 6 0
BBX 6 3 0 3
BITMAP
D4
5C
54
ENDCHAR
STARTCHAR minus
ENCODING 8722
SWIDTH 420 0
DWIDTH 6 0
BBX 4 2 1 2
BITMAP
F0
F0
ENDCHAR
STARTCHAR uni2215
ENCODING 8725
SWIDTH 278 0
DWIDTH 4 0
BBX 4 6 0 0
BITMAP
30
20
60
60
40
C0
ENDCHAR
STARTCHAR .notdef
ENCODING -1
SWIDTH 500 0
DWIDTH 7 0
BBX 5 16 1 -3
BITMAP
F8
88
88
88
88
88
88
88
88
88
88
88
88
88
88
F8
ENDCHAR
STARTCHAR NULL
ENCODING -1
SWIDTH 600 0
DWIDTH 8 0
BBX 1 1 0 0
BITMAP
00
ENDCHAR
STARTCHAR acutecomb.case
ENCODING -1
SWIDTH 0 0
DWIDTH 0 0
BBX 3 3 1 13
BITMAP
60
C0
C0
ENDCHAR
STARTCHAR ampersand.case
ENCODING -1
SWIDTH 797 0
DWIDTH 11 0
BBX 11 12 0 0
BITMAP
1E00
2D00
3F00
2B00
3F00
3600
5C80
EF60
E5C0
DE80
7B80
3DC0
ENDCHAR
STARTCHAR asciicircum.case
ENCODING -1
SWIDTH 540 0
DWIDTH 8 0
BBX 7 6 0 6
BITMAP
10
18
34
6C
64
C6
ENDCHAR
STARTCHAR asciitilde.case
ENCODING -1
SWIDTH 640 0
DWIDTH 9 0
BBX 7 4 1 4
BITMAP
E2
FE
B2
8C
ENDCHAR
STARTCHAR asterisk.case
ENCODING -1
SWIDTH 482 0
DWIDTH 7 0
BBX 5 5 1 7
BITMAP
60
F8
88
50
D0
ENDCHAR
STARTCHAR at.case
ENCODING -1
SWIDTH 915 0
DWIDTH 13 0
BBX 11 12 1 0
BITMAP
1F80
7F40
A0A0
CF60
9360
B320
B320
9F60
CFA0
A0C0
7F80
1F00
ENDCHAR
STARTCHAR backslash.case
ENCODING -1
SWIDTH 504 0
DWIDTH 7 0
BBX 7 14 0 -1
BITMAP
E0
E0
60
70
70
70
30
38
38
14
1C
1C
0A
0E
ENDCHAR
STARTCHAR bar.case
ENCODING -1
SWIDTH 262 0
DWIDTH 4 0
BBX 2 14 1 -1
BITMAP
C0
C0
C0
C0
C0
C0
C0
C0
C0
C0
C0
C0
C0
C0
ENDCHAR
STARTCHAR braceleft.case
ENCODING -1
SWIDTH 504 0
DWIDTH 7 0
BBX 5 14 1 -1
BITMAP
78
70
78
70
70
70
F0
70
F0
70
70
78
70
78
ENDCHAR
STARTCHAR braceright.case
ENCODING -1
SWIDTH 506 0
DWIDTH 7 0
BBX 5 14 1 -2
BITMAP
F0
70
F0
70
70
78
70
78
70
70
70
F0
70
F0
ENDCHAR
STARTCHAR bracketleft.case
ENCODING -1
SWIDTH 453 0
DWIDTH 6 0
BBX 5 14 1 -1
BITMAP
B8
C0
B8
C0
C0
C0
C0
C0
C0
C0
C0
B8
C0
B8
ENDCHAR
STARTCHAR bracketright.case
ENCODING -1
SWIDTH 453 0
DWIDTH 6 0
BBX 5 14 1 -2
BITMAP
F8
38
F8
38
38
38
38
38
38
38
38
F8
38
F8
ENDCHAR
STARTCHAR brokenbar.case
ENCODING -1
SWIDTH 262 0
DWIDTH 4 0
BBX 2 14 1 0
BITMAP
C0
C0
C0
C0
C0
C0
C0
00
C0
C0
C0
C0
C0
C0
ENDCHAR
STARTCHAR bullet.case
ENCODING -1
SWIDTH 503 0
DWIDTH 7 0
BBX 5 6 1 3
BITMAP
70
F8
88
88
F8
70
ENDCHAR
STARTCHAR uni0327.case
ENCODING -1
SWIDTH 0 0
DWIDTH 0 0
BBX 3 4 1 -4
BITMAP
40
C0
20
C0
ENDCHAR
STARTCHAR cent.case
ENCODING -1
SWIDTH 577 0
DWIDTH 8 0
BBX 7 13 1 -1
BITMAP
10
10
3C
5A
FC
C0
C0
C0
FC
7A
3C
10
10
ENDCHAR
STARTCHAR uni0302.case
ENCODING -1
SWIDTH 0 0
DWIDTH 0 0
BBX 6 3 1 13
BITMAP
70
58
DC
ENDCHAR
STARTCHAR colon.case
ENCODING -1
SWIDTH 262 0
DWIDTH 4 0
BBX 2 8 1 0
BITMAP
C0
C0
00
00
00
00
C0
C0
ENDCHAR
STARTCHAR comma.case
ENCODING -1
SWIDTH 338 0
DWIDTH 5 0
BBX 3 4 1 -1
BITMAP
E0
E0
A0
C0
ENDCHAR
STARTCHAR copyright.case
ENCODING -1
SWIDTH 895 0
DWIDTH 13 0
BBX 12 12 0 0
BITMAP
1F80
2F40
50E0
6730
CFB0
D830
D830
CFB0
6730
50E0
2F40
1F80
ENDCHAR
STARTCHAR currency.case
ENCODING -1
SWIDTH 676 0
DWIDTH 9 0
BBX 9 10 0 0
BITMAP
2100
6300
7E80
2F00
3600
3600
6F00
FD80
6280
2100
ENDCHAR
STARTCHAR degree.case
ENCODING -1
SWIDTH 413 0
DWIDTH 6 0
BBX 5 5 0 7
BITMAP
70
B8
C8
B8
70
ENDCHAR
STARTCHAR uni0308.case
ENCODING -1
SWIDTH 0 0
DWIDTH 0 0
BBX 6 3 1 12
BITMAP
CC
B4
CC
ENDCHAR
STARTCHAR divide.case
ENCODING -1
SWIDTH 618 0
DWIDTH 9 0
BBX 7 8 1 2
BITMAP
10
28
10
FE
00
FE
10
18
ENDCHAR
STARTCHAR uni2215.case
ENCODING -1
SWIDTH 483 0
DWIDTH 7 0
BBX 6 12 0 0
BITMAP
1C
1C
1C
18
18
38
28
70
70
50
E0
E0
ENDCHAR
STARTCHAR dollar.case
ENCODING -1
SWIDTH 660 0
DWIDTH 9 0
BBX 9 14 0 -1
BITMAP
0800
0800
6B00
6A80
EB00
F400
6C00
3F00
0D80
2B80
D780
6B00
2A00
0800
ENDCHAR
STARTCHAR eight.case
ENCODING -1
SWIDTH 561 0
DWIDTH 8 0
BBX 7 12 0 0
BITMAP
3C
7A
DE
E6
66
7A
5E
66
E6
DE
7A
3C
ENDCHAR
STARTCHAR ellipsis.case
ENCODING -1
SWIDTH 766 0
DWIDTH 11 0
BBX 9 2 1 0
BITMAP
DF80
DF80
ENDCHAR
STARTCHAR emdash.case
ENCODING -1
SWIDTH 790 0
DWIDTH 11 0
BBX 9 3 1 4
BITMAP
FF80
0000
FF80
ENDCHAR
STARTCHAR endash.case
ENCODING -1
SWIDTH 721 0
DWIDTH 10 0
BBX 8 3 1 4
BITMAP
FF
00
FF
ENDCHAR
STARTCHAR equal.case
ENCODING -1
SWIDTH 618 0
DWIDTH 9 0
BBX 7 7 1 2
BITMAP
FE
FE
FE
00
FE
FE
FE
ENDCHAR
STARTCHAR Euro.case
ENCODING -1
SWIDTH 767 0
DWIDTH 11 0
BBX 10 12 0 0
BITMAP
0F80
1F40
37C0
7880
FE00
0000
FE00
3000
2880
3FC0
1740
0F80
ENDCHAR
STARTCHAR exclam.case
ENCODING -1
SWIDTH 262 0
DWIDTH 4 0
BBX 2 12 1 0
BITMAP
C0
C0
C0
C0
C0
C0
C0
C0
C0
00
C0
C0
ENDCHAR
STARTCHAR exclamdown.case
ENCODING -1
SWIDTH 262 0
DWIDTH 4 0
BBX 2 12 1 -3
BITMAP
C0
C0
00
C0
C0
C0
C0
C0
C0
C0
C0
C0
ENDCHAR
STARTCHAR five.case
ENCODING -1
SWIDTH 558 0
DWIDTH 8 0
BBX 7 12 0 0
BITMAP
7E
7E
7E
E0
EC
E2
EE
06
E6
DE
7A
3C
ENDCHAR
STARTCHAR four.case
ENCODING -1
SWIDTH 585 0
DWIDTH 8 0
BBX 8 12 0 0
BITMAP
1C
1C
38
38
70
70
EC
FD
FD
FD
0C
0C
ENDCHAR
STARTCHAR uni2074.case
ENCODING -1
SWIDTH 312 0
DWIDTH 4 0
BBX 4 5 0 7
BITMAP
60
60
F0
F0
F0
ENDCHAR
STARTCHAR fraction.case
ENCODING -1
SWIDTH 655 0
DWIDTH 9 0
BBX 7 12 1 0
BITMAP
06
06
0C
0C
18
18
30
30
60
60
C0
80
ENDCHAR
STARTCHAR gravecomb.case
ENCODING -1
SWIDTH 0 0
DWIDTH 0 0
BBX 3 3 1 13
BITMAP
C0
C0
60
ENDCHAR
STARTCHAR greater.case
ENCODING -1
SWIDTH 677 0
DWIDTH 9 0
BBX 8 9 1 1
BITMAP
80
E0
D0
7C
17
7E
B8
E0
C0
ENDCHAR
STARTCHAR guillemotleft.case
ENCODING -1
SWIDTH 666 0
DWIDTH 9 0
BBX 8 7 1 2
BITMAP
23
E7
ED
CE
ED
E7
23
ENDCHAR
STARTCHAR guillemotright.case
ENCODING -1
SWIDTH 666 0
DWIDTH 9 0
BBX 8 7 1 2
BITMAP
8C
CA
EF
63
EF
CA
8C
ENDCHAR
STARTCHAR guilsinglleft.case
ENCODING -1
SWIDTH 338 0
DWIDTH 5 0
BBX 3 7 1 2
BITMAP
20
E0
E0
C0
E0
E0
20
ENDCHAR
STARTCHAR guilsinglright.case
ENCODING -1
SWIDTH 338 0
DWIDTH 5 0
BBX 3 7 1 2
BITMAP
80
C0
E0
60
E0
C0
80
ENDCHAR
STARTCHAR hyphen.case
ENCODING -1
SWIDTH 445 0
DWIDTH 6 0
BBX 5 3 1 4
BITMAP
F8
00
F8
ENDCHAR
STARTCHAR less.case
ENCODING -1
SWIDTH 677 0
DWIDTH 9 0
BBX 8 9 1 1
BITMAP
03
0F
1F
74
F8
74
1F
07
03
ENDCHAR
STARTCHAR logicalnot.case
ENCODING -1
SWIDTH 618 0
DWIDTH 9 0
BBX 7 5 1 2
BITMAP
FE
00
FE
0E
0E
ENDCHAR
STARTCHAR uni00B5.case
ENCODING -1
SWIDTH 792 0
DWIDTH 11 0
BBX 10 15 1 -3
BITMAP
C300
C300
C300
C300
C300
C300
C300
C300
C780
FB40
FFC0
BCC0
C000
C000
C000
ENDCHAR
STARTCHAR minus.case
ENCODING -1
SWIDTH 618 0
DWIDTH 9 0
BBX 7 3 1 4
BITMAP
FE
00
FE
ENDCHAR
STARTCHAR multiply.case
ENCODING -1
SWIDTH 580 0
DWIDTH 8 0
BBX 7 8 1 2
BITMAP
04
4C
FE
B8
78
EC
D4
08
ENDCHAR
STARTCHAR nine.case
ENCODING -1
SWIDTH 558 0
DWIDTH 8 0
BBX 7 12 0 -1
BITMAP
3C
7A
DE
E6
E6
BE
46
3E
E6
DE
7A
3C
ENDCHAR
STARTCHAR numbersign.case
ENCODING -1
SWIDTH 776 0
DWIDTH 11 0
BBX 9 12 1 0
BITMAP
2B80
3300
EF80
BF80
FF80
7700
FE80
FA80
F680
0600
AE00
EE00
ENDCHAR
STARTCHAR one.case
ENCODING -1
SWIDTH 378 0
DWIDTH 5 0
BBX 5 12 0 0
BITMAP
F8
F8
F8
38
38
38
38
38
38
38
38
38
ENDCHAR
STARTCHAR onehalf.case
ENCODING -1
SWIDTH 735 0
DWIDTH 10 0
BBX 9 12 1 0
BITMAP
E300
E500
6600
6C00
6C00
1800
1B00
3780
3100
6300
6780
C780
ENDCHAR
STARTCHAR onequarter.case
ENCODING -1
SWIDTH 722 0
DWIDTH 10 0
BBX 8 12 1 0
BITMAP
E3
E5
66
6C
6C
18
1B
36
37
67
67
C0
ENDCHAR
STARTCHAR uni00B9.case
ENCODING -1
SWIDTH 306 0
DWIDTH 4 0
BBX 3 5 1 7
BITMAP
E0
E0
60
60
60
ENDCHAR
STARTCHAR ordfeminine.case
ENCODING -1
SWIDTH 456 0
DWIDTH 6 0
BBX 5 5 1 7
BITMAP
60
50
B0
F0
F8
ENDCHAR
STARTCHAR ordmasculine.case
ENCODING -1
SWIDTH 489 0
DWIDTH 7 0
BBX 5 6 1 6
BITMAP
70
E8
98
98
E8
70
ENDCHAR
STARTCHAR paragraph.case
ENCODING -1
SWIDTH 893 0
DWIDTH 13 0
BBX 12 12 0 0
BITMAP
3FF0
7FF0
DFF0
E3B0
DFB0
7FB0
3FB0
03B0
03B0
03B0
03B0
03B0
ENDCHAR
STARTCHAR parenleft.case
ENCODING -1
SWIDTH 290 0
DWIDTH 4 0
BBX 4 14 0 -1
BITMAP
30
50
70
50
E0
60
E0
E0
E0
A0
60
50
70
30
ENDCHAR
STARTCHAR parenright.case
ENCODING -1
SWIDTH 290 0
DWIDTH 4 0
BBX 4 14 0 -2
BITMAP
C0
E0
E0
50
60
70
70
70
70
50
60
60
C0
C0
ENDCHAR
STARTCHAR percent.case
ENCODING -1
SWIDTH 827 0
DWIDTH 12 0
BBX 11 12 0 0
BITMAP
78E0
B9A0
C9C0
BB80
7280
0700
1A00
1DC0
3AE0
2B60
72E0
D1C0
ENDCHAR
STARTCHAR period.case
ENCODING -1
SWIDTH 262 0
DWIDTH 4 0
BBX 2 2 1 0
BITMAP
C0
C0
ENDCHAR
STARTCHAR periodcentered.case
ENCODING -1
SWIDTH 262 0
DWIDTH 4 0
BBX 2 2 1 4
BITMAP
C0
C0
ENDCHAR
STARTCHAR plus.case
ENCODING -1
SWIDTH 616 0
DWIDTH 9 0
BBX 7 8 1 2
BITMAP
30
30
30
F6
30
F6
30
30
ENDCHAR
STARTCHAR plusminus.case
ENCODING -1
SWIDTH 618 0
DWIDTH 9 0
BBX 7 11 1 0
BITMAP
30
30
30
F6
30
F6
30
30
FE
00
FE
ENDCHAR
STARTCHAR question.case
ENCODING -1
SWIDTH 598 0
DWIDTH 8 0
BBX 7 12 1 0
BITMAP
78
BC
F6
CE
0E
1C
38
28
28
00
28
28
ENDCHAR
STARTCHAR questiondown.case
ENCODING -1
SWIDTH 598 0
DWIDTH 8 0
BBX 7 12 1 -3
BITMAP
28
28
00
28
28
70
F0
C0
CE
F4
BC
78
ENDCHAR
STARTCHAR quotedbl.case
ENCODING -1
SWIDTH 464 0
DWIDTH 7 0
BBX 6 4 0 8
BITMAP
EC
EC
EC
EC
ENDCHAR
STARTCHAR quotedblbase.case
ENCODING -1
SWIDTH 464 0
DWIDTH 7 0
BBX 6 4 0 -1
BITMAP
EC
EC
64
64
ENDCHAR
STARTCHAR quotedblleft.case
ENCODING -1
SWIDTH 464 0
DWIDTH 7 0
BBX 6 4 0 7
BITMAP
C8
C8
EC
EC
ENDCHAR
STARTCHAR quotedblright.case
ENCODING -1
SWIDTH 464 0
DWIDTH 7 0
BBX 6 4 0 8
BITMAP
EC
EC
64
64
ENDCHAR
STARTCHAR quoteleft.case
ENCODING -1
SWIDTH 212 0
DWIDTH 3 0
BBX 3 4 0 7
BITMAP
C0
C0
E0
E0
ENDCHAR
STARTCHAR quoteright.case
ENCODING -1
SWIDTH 212 0
DWIDTH 3 0
BBX 3 4 0 8
BITMAP
E0
E0
60
60
ENDCHAR
STARTCHAR quotesinglbase.case
ENCODING -1
SWIDTH 212 0
DWIDTH 3 0
BBX 3 4 0 -1
BITMAP
E0
E0
60
60
ENDCHAR
STARTCHAR quotesingle.case
ENCODING -1
SWIDTH 212 0
DWIDTH 3 0
BBX 3 4 0 8
BITMAP
E0
E0
E0
E0
ENDCHAR
STARTCHAR registered.case
ENCODING -1
SWIDTH 895 0
DWIDTH 13 0
BBX 12 12 0 0
BITMAP
1F80
2F40
50E0
6F30
CFB0
CFB0
CB30
C930
69B0
50E0
2F40
1F80
ENDCHAR
STARTCHAR uni030A.case
ENCODING -1
SWIDTH 0 0
DWIDTH 0 0
BBX 3 4 1 12
BITMAP
C0
A0
A0
C0
ENDCHAR
STARTCHAR section.case
ENCODING -1
SWIDTH 645 0
DWIDTH 9 0
BBX 9 15 0 -2
BITMAP
1C00
7700
6D80
7200
5C00
3300
6F00
5280
5700
7C00
3B00
0D00
F700
7D00
3E00
ENDCHAR
STARTCHAR semicolon.case
ENCODING -1
SWIDTH 338 0
DWIDTH 5 0
BBX 3 9 1 -1
BITMAP
E0
E0
00
00
00
E0
E0
A0
C0
ENDCHAR
STARTCHAR seven.case
ENCODING -1
SWIDTH 505 0
DWIDTH 7 0
BBX 7 12 0 0
BITMAP
FE
FE
FE
0A
1C
1C
18
18
28
38
28
70
ENDCHAR
STARTCHAR six.case
ENCODING -1
SWIDTH 558 0
DWIDTH 8 0
BBX 7 12 0 0
BITMAP
3C
7A
DE
E6
FC
E2
FE
E6
E6
DE
7A
3C
ENDCHAR
STARTCHAR slash.case
ENCODING -1
SWIDTH 504 0
DWIDTH 7 0
BBX 7 14 0 -1
BITMAP
06
0E
0A
14
1C
14
38
38
28
70
70
50
E0
E0
ENDCHAR
STARTCHAR uni00AD.case
ENCODING -1
SWIDTH 445 0
DWIDTH 6 0
BBX 5 3 1 4
BITMAP
F8
00
F8
ENDCHAR
STARTCHAR sterling.case
ENCODING -1
SWIDTH 618 0
DWIDTH 9 0
BBX 8 12 0 0
BITMAP
3E
5D
BF
A2
60
FC
00
FC
70
FF
FF
FF
ENDCHAR
STARTCHAR three.case
ENCODING -1
SWIDTH 558 0
DWIDTH 8 0
BBX 7 12 0 0
BITMAP
3C
7E
DA
E6
0E
02
0E
06
E6
DE
7A
3C
ENDCHAR
STARTCHAR threequarters.case
ENCODING -1
SWIDTH 722 0
DWIDTH 10 0
BBX 8 12 1 0
BITMAP
E3
E5
46
6C
EC
D8
1B
36
37
67
67
C0
ENDCHAR
STARTCHAR uni00B3.case
ENCODING -1
SWIDTH 332 0
DWIDTH 5 0
BBX 3 6 1 6
BITMAP
E0
E0
40
60
E0
C0
ENDCHAR
STARTCHAR tildecomb.case
ENCODING -1
SWIDTH 0 0
DWIDTH 0 0
BBX 5 2 1 12
BITMAP
C8
B0
ENDCHAR
STARTCHAR trademark.case
ENCODING -1
SWIDTH 850 0
DWIDTH 12 0
BBX 11 6 0 6
BITMAP
FE20
FF60
66E0
67A0
6620
6620
ENDCHAR
STARTCHAR two.case
ENCODING -1
SWIDTH 558 0
DWIDTH 8 0
BBX 7 12 0 0
BITMAP
3C
7A
DE
E6
06
0E
1C
38
70
7E
7E
7E
ENDCHAR
STARTCHAR uni00B2.case
ENCODING -1
SWIDTH 339 0
DWIDTH 5 0
BBX 3 6 1 6
BITMAP
E0
E0
60
C0
E0
E0
ENDCHAR
STARTCHAR underscore.case
ENCODING -1
SWIDTH 667 0
DWIDTH 9 0
BBX 8 3 1 0
BITMAP
FF
FF
FF
ENDCHAR
STARTCHAR yen.case
ENCODING -1
SWIDTH 769 0
DWIDTH 11 0
BBX 11 12 0 0
BITMAP
E1E0
71C0
5380
3D00
1F00
1A00
0400
3F80
3F80
3F80
0E00
0E00
ENDCHAR
STARTCHAR zero.case
ENCODING -1
SWIDTH 558 0
DWIDTH 8 0
BBX 7 12 0 0
BITMAP
3C
7A
DE
E6
E6
E6
E6
E6
E6
DE
7A
3C
ENDCHAR
ENDFONT
